<mxfile host="app.diagrams.net" agent="Mozilla/5.0 (Macintosh; Intel Mac OS X 10_15_7) AppleWebKit/537.36 (KHTML, like Gecko) Chrome/129.0.0.0 Safari/537.36" version="24.8.0">
  <diagram name="Страница — 1" id="GmSG8cgiWZRSHYYx-Ri9">
    <mxGraphModel dx="1405" dy="928" grid="1" gridSize="10" guides="1" tooltips="1" connect="1" arrows="1" fold="1" page="1" pageScale="1" pageWidth="827" pageHeight="1169" math="0" shadow="0">
      <root>
        <mxCell id="0" />
        <mxCell id="1" parent="0" />
        <mxCell id="gU8ZbOlMIRfk5gMa6P2e-1" value="" style="rounded=1;whiteSpace=wrap;html=1;" parent="1" vertex="1">
          <mxGeometry x="29" y="160" width="120" height="240" as="geometry" />
        </mxCell>
        <mxCell id="gU8ZbOlMIRfk5gMa6P2e-4" value="table_booking" style="text;html=1;align=center;verticalAlign=middle;whiteSpace=wrap;rounded=0;fontStyle=1;fontSize=9;" parent="1" vertex="1">
          <mxGeometry x="59" y="160" width="60" height="35" as="geometry" />
        </mxCell>
        <mxCell id="gU8ZbOlMIRfk5gMa6P2e-6" value="" style="rounded=0;whiteSpace=wrap;html=1;" parent="1" vertex="1">
          <mxGeometry x="39" y="265" width="100" height="30" as="geometry" />
        </mxCell>
        <mxCell id="gU8ZbOlMIRfk5gMa6P2e-7" value="Забронировать столик" style="text;html=1;align=center;verticalAlign=middle;whiteSpace=wrap;rounded=0;fontSize=7;" parent="1" vertex="1">
          <mxGeometry x="39" y="265" width="100" height="30" as="geometry" />
        </mxCell>
        <mxCell id="gU8ZbOlMIRfk5gMa6P2e-8" value="" style="rounded=1;whiteSpace=wrap;html=1;" parent="1" vertex="1">
          <mxGeometry x="550" y="160" width="120" height="235" as="geometry" />
        </mxCell>
        <mxCell id="gU8ZbOlMIRfk5gMa6P2e-10" value="" style="rounded=1;whiteSpace=wrap;html=1;" parent="1" vertex="1">
          <mxGeometry x="550" y="185" width="120" height="215" as="geometry" />
        </mxCell>
        <mxCell id="xE90uwtvQkSf8TCc8kJb-50" style="edgeStyle=orthogonalEdgeStyle;rounded=0;orthogonalLoop=1;jettySize=auto;html=1;entryX=0.667;entryY=0;entryDx=0;entryDy=0;entryPerimeter=0;" edge="1" parent="1" source="gU8ZbOlMIRfk5gMa6P2e-11" target="xE90uwtvQkSf8TCc8kJb-19">
          <mxGeometry relative="1" as="geometry" />
        </mxCell>
        <mxCell id="gU8ZbOlMIRfk5gMa6P2e-11" value="назад" style="text;html=1;align=center;verticalAlign=middle;whiteSpace=wrap;rounded=0;fontSize=6;fillColor=#dae8fc;strokeColor=#6c8ebf;" parent="1" vertex="1">
          <mxGeometry x="550" y="165" width="60" height="18" as="geometry" />
        </mxCell>
        <mxCell id="gU8ZbOlMIRfk5gMa6P2e-14" value="выберите столик" style="text;html=1;align=center;verticalAlign=middle;whiteSpace=wrap;rounded=0;fontSize=6;" parent="1" vertex="1">
          <mxGeometry x="575" y="195" width="70" height="10" as="geometry" />
        </mxCell>
        <mxCell id="gU8ZbOlMIRfk5gMa6P2e-18" value="" style="ellipse;whiteSpace=wrap;html=1;aspect=fixed;fillColor=#f8cecc;strokeColor=#b85450;" parent="1" vertex="1">
          <mxGeometry x="610" y="240" width="40" height="40" as="geometry" />
        </mxCell>
        <mxCell id="gU8ZbOlMIRfk5gMa6P2e-20" value="" style="rounded=0;whiteSpace=wrap;html=1;fillColor=#d5e8d4;strokeColor=#82b366;" parent="1" vertex="1">
          <mxGeometry x="580" y="312" width="60" height="30" as="geometry" />
        </mxCell>
        <mxCell id="gU8ZbOlMIRfk5gMa6P2e-22" value="" style="shape=link;html=1;rounded=0;" parent="1" edge="1">
          <mxGeometry width="100" relative="1" as="geometry">
            <mxPoint x="560" y="385" as="sourcePoint" />
            <mxPoint x="660" y="385" as="targetPoint" />
          </mxGeometry>
        </mxCell>
        <mxCell id="gU8ZbOlMIRfk5gMa6P2e-23" value="" style="shape=link;html=1;rounded=0;" parent="1" edge="1">
          <mxGeometry width="100" relative="1" as="geometry">
            <mxPoint x="666" y="217.39" as="sourcePoint" />
            <mxPoint x="666" y="372.61" as="targetPoint" />
          </mxGeometry>
        </mxCell>
        <mxCell id="gU8ZbOlMIRfk5gMa6P2e-24" value="" style="endArrow=none;html=1;rounded=0;" parent="1" edge="1">
          <mxGeometry width="50" height="50" relative="1" as="geometry">
            <mxPoint x="666" y="315" as="sourcePoint" />
            <mxPoint x="666" y="245" as="targetPoint" />
          </mxGeometry>
        </mxCell>
        <mxCell id="gU8ZbOlMIRfk5gMa6P2e-25" value="" style="endArrow=none;html=1;rounded=0;" parent="1" edge="1">
          <mxGeometry width="50" height="50" relative="1" as="geometry">
            <mxPoint x="580" y="385" as="sourcePoint" />
            <mxPoint x="630" y="385" as="targetPoint" />
            <Array as="points">
              <mxPoint x="640" y="385" />
            </Array>
          </mxGeometry>
        </mxCell>
        <mxCell id="gU8ZbOlMIRfk5gMa6P2e-26" value="" style="ellipse;whiteSpace=wrap;html=1;aspect=fixed;fillColor=#d5e8d4;strokeColor=#82b366;" parent="1" vertex="1">
          <mxGeometry x="560" y="241" width="40" height="40" as="geometry" />
        </mxCell>
        <mxCell id="gU8ZbOlMIRfk5gMa6P2e-28" value="" style="rounded=1;whiteSpace=wrap;html=1;" parent="1" vertex="1">
          <mxGeometry x="198" y="160" width="120" height="235" as="geometry" />
        </mxCell>
        <mxCell id="gU8ZbOlMIRfk5gMa6P2e-29" value="" style="rounded=1;whiteSpace=wrap;html=1;" parent="1" vertex="1">
          <mxGeometry x="198" y="185" width="120" height="215" as="geometry" />
        </mxCell>
        <mxCell id="gU8ZbOlMIRfk5gMa6P2e-109" style="edgeStyle=orthogonalEdgeStyle;rounded=0;orthogonalLoop=1;jettySize=auto;html=1;entryX=0.5;entryY=0;entryDx=0;entryDy=0;" parent="1" source="gU8ZbOlMIRfk5gMa6P2e-30" target="gU8ZbOlMIRfk5gMa6P2e-4" edge="1">
          <mxGeometry relative="1" as="geometry" />
        </mxCell>
        <mxCell id="gU8ZbOlMIRfk5gMa6P2e-30" value="назад" style="text;html=1;align=center;verticalAlign=middle;whiteSpace=wrap;rounded=0;fontSize=6;strokeColor=#6c8ebf;fillColor=#dae8fc;" parent="1" vertex="1">
          <mxGeometry x="198" y="165" width="60" height="18" as="geometry" />
        </mxCell>
        <mxCell id="gU8ZbOlMIRfk5gMa6P2e-31" value="информация о визите" style="text;html=1;align=center;verticalAlign=middle;whiteSpace=wrap;rounded=0;fontSize=6;" parent="1" vertex="1">
          <mxGeometry x="223" y="195" width="70" height="10" as="geometry" />
        </mxCell>
        <mxCell id="gU8ZbOlMIRfk5gMa6P2e-32" value="" style="rounded=1;whiteSpace=wrap;html=1;" parent="1" vertex="1">
          <mxGeometry x="208" y="230" width="100" height="15" as="geometry" />
        </mxCell>
        <mxCell id="gU8ZbOlMIRfk5gMa6P2e-33" value="" style="rounded=1;whiteSpace=wrap;html=1;" parent="1" vertex="1">
          <mxGeometry x="208" y="262.5" width="100" height="17.5" as="geometry" />
        </mxCell>
        <mxCell id="gU8ZbOlMIRfk5gMa6P2e-34" value="Дата" style="text;html=1;align=center;verticalAlign=middle;whiteSpace=wrap;rounded=0;fontSize=7;" parent="1" vertex="1">
          <mxGeometry x="198" y="205" width="50" height="36" as="geometry" />
        </mxCell>
        <mxCell id="gU8ZbOlMIRfk5gMa6P2e-35" value="Время" style="text;html=1;align=center;verticalAlign=middle;whiteSpace=wrap;rounded=0;fontSize=7;" parent="1" vertex="1">
          <mxGeometry x="198" y="240" width="50" height="30" as="geometry" />
        </mxCell>
        <mxCell id="gU8ZbOlMIRfk5gMa6P2e-36" value="" style="triangle;whiteSpace=wrap;html=1;rotation=90;" parent="1" vertex="1">
          <mxGeometry x="298" y="236" width="2" height="4" as="geometry" />
        </mxCell>
        <mxCell id="gU8ZbOlMIRfk5gMa6P2e-38" value="" style="triangle;whiteSpace=wrap;html=1;rotation=90;" parent="1" vertex="1">
          <mxGeometry x="298" y="269.25" width="2" height="4" as="geometry" />
        </mxCell>
        <mxCell id="gU8ZbOlMIRfk5gMa6P2e-39" value="Выберите дату&amp;nbsp;" style="text;html=1;align=center;verticalAlign=middle;whiteSpace=wrap;rounded=0;fontSize=5;" parent="1" vertex="1">
          <mxGeometry x="180" y="224" width="105" height="25" as="geometry" />
        </mxCell>
        <mxCell id="gU8ZbOlMIRfk5gMa6P2e-40" value="Выберите время&amp;nbsp;" style="text;html=1;align=center;verticalAlign=middle;whiteSpace=wrap;rounded=0;fontSize=5;" parent="1" vertex="1">
          <mxGeometry x="180" y="258.75" width="105" height="25" as="geometry" />
        </mxCell>
        <mxCell id="gU8ZbOlMIRfk5gMa6P2e-41" value="" style="rounded=1;whiteSpace=wrap;html=1;" parent="1" vertex="1">
          <mxGeometry x="208" y="301.25" width="100" height="17.5" as="geometry" />
        </mxCell>
        <mxCell id="gU8ZbOlMIRfk5gMa6P2e-42" value="Количество гостей" style="text;html=1;align=center;verticalAlign=middle;whiteSpace=wrap;rounded=0;fontSize=7;" parent="1" vertex="1">
          <mxGeometry x="203" y="277.5" width="80" height="30" as="geometry" />
        </mxCell>
        <mxCell id="gU8ZbOlMIRfk5gMa6P2e-43" value="" style="triangle;whiteSpace=wrap;html=1;rotation=90;" parent="1" vertex="1">
          <mxGeometry x="298" y="308" width="2" height="4" as="geometry" />
        </mxCell>
        <mxCell id="gU8ZbOlMIRfk5gMa6P2e-44" value="Сколько гостей планируется" style="text;html=1;align=center;verticalAlign=middle;whiteSpace=wrap;rounded=0;fontSize=5;" parent="1" vertex="1">
          <mxGeometry x="195" y="295" width="105" height="25" as="geometry" />
        </mxCell>
        <mxCell id="gU8ZbOlMIRfk5gMa6P2e-45" value="" style="rounded=1;whiteSpace=wrap;html=1;" parent="1" vertex="1">
          <mxGeometry x="205.5" y="365" width="105" height="20" as="geometry" />
        </mxCell>
        <mxCell id="gU8ZbOlMIRfk5gMa6P2e-46" value="выбрать столик" style="text;html=1;align=center;verticalAlign=middle;whiteSpace=wrap;rounded=0;fontSize=8;" parent="1" vertex="1">
          <mxGeometry x="210.5" y="360" width="95" height="30" as="geometry" />
        </mxCell>
        <mxCell id="gU8ZbOlMIRfk5gMa6P2e-47" value="" style="rounded=1;whiteSpace=wrap;html=1;" parent="1" vertex="1">
          <mxGeometry x="555" y="209" width="50" height="15" as="geometry" />
        </mxCell>
        <mxCell id="gU8ZbOlMIRfk5gMa6P2e-48" value="1 этаж" style="text;html=1;align=center;verticalAlign=middle;whiteSpace=wrap;rounded=0;fontSize=9;" parent="1" vertex="1">
          <mxGeometry x="550" y="201.5" width="60" height="30" as="geometry" />
        </mxCell>
        <mxCell id="gU8ZbOlMIRfk5gMa6P2e-54" value="" style="rounded=1;whiteSpace=wrap;html=1;" parent="1" vertex="1">
          <mxGeometry x="610" y="208" width="50" height="17" as="geometry" />
        </mxCell>
        <mxCell id="gU8ZbOlMIRfk5gMa6P2e-55" value="2 этаж" style="text;html=1;align=center;verticalAlign=middle;whiteSpace=wrap;rounded=0;fontSize=9;" parent="1" vertex="1">
          <mxGeometry x="605" y="203.25" width="60" height="26.5" as="geometry" />
        </mxCell>
        <mxCell id="gU8ZbOlMIRfk5gMa6P2e-56" value="занят до 19:30" style="text;html=1;align=center;verticalAlign=middle;whiteSpace=wrap;rounded=0;fontSize=4;" parent="1" vertex="1">
          <mxGeometry x="600" y="245" width="60" height="30" as="geometry" />
        </mxCell>
        <mxCell id="gU8ZbOlMIRfk5gMa6P2e-59" value="" style="rounded=1;whiteSpace=wrap;html=1;rotation=-180;fillColor=#d5e8d4;strokeColor=#82b366;" parent="1" vertex="1">
          <mxGeometry x="570" y="235" width="20" height="10" as="geometry" />
        </mxCell>
        <mxCell id="gU8ZbOlMIRfk5gMa6P2e-60" value="" style="rounded=1;whiteSpace=wrap;html=1;rotation=-181;fillColor=#d5e8d4;strokeColor=#82b366;" parent="1" vertex="1">
          <mxGeometry x="570" y="277.5" width="20" height="10" as="geometry" />
        </mxCell>
        <mxCell id="gU8ZbOlMIRfk5gMa6P2e-62" value="" style="rounded=1;whiteSpace=wrap;html=1;rotation=-180;fillColor=#f8cecc;strokeColor=#b85450;" parent="1" vertex="1">
          <mxGeometry x="620" y="235" width="20" height="10" as="geometry" />
        </mxCell>
        <mxCell id="gU8ZbOlMIRfk5gMa6P2e-63" value="" style="rounded=1;whiteSpace=wrap;html=1;rotation=-180;fillColor=#f8cecc;strokeColor=#b85450;" parent="1" vertex="1">
          <mxGeometry x="620" y="275" width="20" height="10" as="geometry" />
        </mxCell>
        <mxCell id="gU8ZbOlMIRfk5gMa6P2e-64" value="" style="rounded=1;whiteSpace=wrap;html=1;rotation=-180;fillColor=#e1d5e7;strokeColor=#9673a6;" parent="1" vertex="1">
          <mxGeometry x="600" y="305" width="20" height="10" as="geometry" />
        </mxCell>
        <mxCell id="gU8ZbOlMIRfk5gMa6P2e-65" value="" style="rounded=1;whiteSpace=wrap;html=1;rotation=-180;fillColor=#e1d5e7;strokeColor=#9673a6;" parent="1" vertex="1">
          <mxGeometry x="600" y="342" width="20" height="10" as="geometry" />
        </mxCell>
        <mxCell id="gU8ZbOlMIRfk5gMa6P2e-67" value="" style="rounded=1;whiteSpace=wrap;html=1;rotation=-90;fillColor=#e1d5e7;strokeColor=#9673a6;" parent="1" vertex="1">
          <mxGeometry x="570" y="322" width="20" height="10" as="geometry" />
        </mxCell>
        <mxCell id="gU8ZbOlMIRfk5gMa6P2e-68" value="" style="rounded=1;whiteSpace=wrap;html=1;rotation=-90;fillColor=#e1d5e7;strokeColor=#9673a6;" parent="1" vertex="1">
          <mxGeometry x="630" y="322" width="20" height="10" as="geometry" />
        </mxCell>
        <mxCell id="gU8ZbOlMIRfk5gMa6P2e-69" value="&lt;span style=&quot;font-size: 8px;&quot;&gt;выбран&lt;/span&gt;" style="text;html=1;align=center;verticalAlign=middle;whiteSpace=wrap;rounded=0;fillColor=#e1d5e7;strokeColor=#9673a6;" parent="1" vertex="1">
          <mxGeometry x="580" y="312" width="60" height="30" as="geometry" />
        </mxCell>
        <mxCell id="gU8ZbOlMIRfk5gMa6P2e-70" value="доступен" style="text;html=1;align=center;verticalAlign=middle;whiteSpace=wrap;rounded=0;fontSize=4;" parent="1" vertex="1">
          <mxGeometry x="550" y="245" width="60" height="30" as="geometry" />
        </mxCell>
        <mxCell id="gU8ZbOlMIRfk5gMa6P2e-73" value="" style="rounded=1;whiteSpace=wrap;html=1;" parent="1" vertex="1">
          <mxGeometry x="560" y="365" width="100" height="12" as="geometry" />
        </mxCell>
        <mxCell id="gU8ZbOlMIRfk5gMa6P2e-74" value="Подтвердить выбор" style="text;html=1;align=center;verticalAlign=middle;whiteSpace=wrap;rounded=0;fontSize=8;" parent="1" vertex="1">
          <mxGeometry x="562.5" y="355" width="95" height="30" as="geometry" />
        </mxCell>
        <mxCell id="gU8ZbOlMIRfk5gMa6P2e-76" value="" style="rounded=1;whiteSpace=wrap;html=1;" parent="1" vertex="1">
          <mxGeometry x="740" y="160" width="120" height="235" as="geometry" />
        </mxCell>
        <mxCell id="gU8ZbOlMIRfk5gMa6P2e-77" value="" style="rounded=1;whiteSpace=wrap;html=1;" parent="1" vertex="1">
          <mxGeometry x="740" y="185" width="120" height="215" as="geometry" />
        </mxCell>
        <mxCell id="gU8ZbOlMIRfk5gMa6P2e-78" value="дополнительная информация" style="text;html=1;align=center;verticalAlign=middle;whiteSpace=wrap;rounded=0;fontSize=6;" parent="1" vertex="1">
          <mxGeometry x="765" y="195" width="70" height="10" as="geometry" />
        </mxCell>
        <mxCell id="gU8ZbOlMIRfk5gMa6P2e-81" value="" style="rounded=1;whiteSpace=wrap;html=1;" parent="1" vertex="1">
          <mxGeometry x="750" y="235" width="102.5" height="15" as="geometry" />
        </mxCell>
        <mxCell id="gU8ZbOlMIRfk5gMa6P2e-82" value="Полное имя" style="text;html=1;align=center;verticalAlign=middle;whiteSpace=wrap;rounded=0;fontSize=6;" parent="1" vertex="1">
          <mxGeometry x="730" y="211" width="90" height="30" as="geometry" />
        </mxCell>
        <mxCell id="gU8ZbOlMIRfk5gMa6P2e-83" value="" style="rounded=1;whiteSpace=wrap;html=1;" parent="1" vertex="1">
          <mxGeometry x="750" y="265" width="102.5" height="15" as="geometry" />
        </mxCell>
        <mxCell id="gU8ZbOlMIRfk5gMa6P2e-84" value="Номер телефона" style="text;html=1;align=center;verticalAlign=middle;whiteSpace=wrap;rounded=0;fontSize=6;" parent="1" vertex="1">
          <mxGeometry x="730" y="241" width="90" height="30" as="geometry" />
        </mxCell>
        <mxCell id="gU8ZbOlMIRfk5gMa6P2e-85" value="" style="rounded=1;whiteSpace=wrap;html=1;" parent="1" vertex="1">
          <mxGeometry x="750" y="302" width="102.5" height="63" as="geometry" />
        </mxCell>
        <mxCell id="gU8ZbOlMIRfk5gMa6P2e-86" value="Дополнительные пожелания" style="text;html=1;align=center;verticalAlign=middle;whiteSpace=wrap;rounded=0;fontSize=6;" parent="1" vertex="1">
          <mxGeometry x="750" y="280" width="90" height="30" as="geometry" />
        </mxCell>
        <mxCell id="gU8ZbOlMIRfk5gMa6P2e-87" value="назад" style="text;html=1;align=center;verticalAlign=middle;whiteSpace=wrap;rounded=0;fontSize=6;fillColor=#dae8fc;strokeColor=#6c8ebf;" parent="1" vertex="1">
          <mxGeometry x="740" y="165" width="50" height="18" as="geometry" />
        </mxCell>
        <mxCell id="gU8ZbOlMIRfk5gMa6P2e-90" value="далее" style="rounded=1;whiteSpace=wrap;html=1;" parent="1" vertex="1">
          <mxGeometry x="750" y="375" width="102.5" height="15" as="geometry" />
        </mxCell>
        <mxCell id="gU8ZbOlMIRfk5gMa6P2e-91" value="" style="rounded=1;whiteSpace=wrap;html=1;" parent="1" vertex="1">
          <mxGeometry x="930" y="160" width="120" height="235" as="geometry" />
        </mxCell>
        <mxCell id="gU8ZbOlMIRfk5gMa6P2e-92" value="" style="rounded=1;whiteSpace=wrap;html=1;" parent="1" vertex="1">
          <mxGeometry x="930" y="185" width="120" height="215" as="geometry" />
        </mxCell>
        <mxCell id="gU8ZbOlMIRfk5gMa6P2e-93" value="детали бронирования" style="text;html=1;align=center;verticalAlign=middle;whiteSpace=wrap;rounded=0;fontSize=6;" parent="1" vertex="1">
          <mxGeometry x="955" y="195" width="70" height="10" as="geometry" />
        </mxCell>
        <mxCell id="gU8ZbOlMIRfk5gMa6P2e-94" value="Артем Ребрик" style="rounded=1;whiteSpace=wrap;html=1;fontSize=6;" parent="1" vertex="1">
          <mxGeometry x="940" y="221.5" width="102.5" height="15" as="geometry" />
        </mxCell>
        <mxCell id="gU8ZbOlMIRfk5gMa6P2e-95" value="Полное имя" style="text;html=1;align=center;verticalAlign=middle;whiteSpace=wrap;rounded=0;fontSize=6;" parent="1" vertex="1">
          <mxGeometry x="920" y="200" width="90" height="30" as="geometry" />
        </mxCell>
        <mxCell id="gU8ZbOlMIRfk5gMa6P2e-96" value="+532523750" style="rounded=1;whiteSpace=wrap;html=1;fontSize=7;" parent="1" vertex="1">
          <mxGeometry x="940" y="254" width="102.5" height="15" as="geometry" />
        </mxCell>
        <mxCell id="gU8ZbOlMIRfk5gMa6P2e-97" value="Номер телефона" style="text;html=1;align=center;verticalAlign=middle;whiteSpace=wrap;rounded=0;fontSize=6;" parent="1" vertex="1">
          <mxGeometry x="920" y="230" width="90" height="30" as="geometry" />
        </mxCell>
        <mxCell id="gU8ZbOlMIRfk5gMa6P2e-99" value="Дата" style="text;html=1;align=center;verticalAlign=middle;whiteSpace=wrap;rounded=0;fontSize=6;" parent="1" vertex="1">
          <mxGeometry x="929" y="265.5" width="60" height="30" as="geometry" />
        </mxCell>
        <mxCell id="gU8ZbOlMIRfk5gMa6P2e-100" value="назад" style="text;html=1;align=center;verticalAlign=middle;whiteSpace=wrap;rounded=0;fontSize=6;fillColor=#dae8fc;strokeColor=#6c8ebf;" parent="1" vertex="1">
          <mxGeometry x="929" y="165" width="55" height="18" as="geometry" />
        </mxCell>
        <mxCell id="xE90uwtvQkSf8TCc8kJb-54" style="edgeStyle=orthogonalEdgeStyle;rounded=0;orthogonalLoop=1;jettySize=auto;html=1;entryX=0;entryY=0.5;entryDx=0;entryDy=0;" edge="1" parent="1" source="gU8ZbOlMIRfk5gMa6P2e-101" target="xE90uwtvQkSf8TCc8kJb-1">
          <mxGeometry relative="1" as="geometry" />
        </mxCell>
        <mxCell id="gU8ZbOlMIRfk5gMa6P2e-101" value="подтвердить бронь" style="rounded=1;whiteSpace=wrap;html=1;fontSize=8;" parent="1" vertex="1">
          <mxGeometry x="940" y="375" width="99" height="15" as="geometry" />
        </mxCell>
        <mxCell id="gU8ZbOlMIRfk5gMa6P2e-102" value="Время" style="text;html=1;align=center;verticalAlign=middle;whiteSpace=wrap;rounded=0;fontSize=6;" parent="1" vertex="1">
          <mxGeometry x="920" y="302" width="90" height="30" as="geometry" />
        </mxCell>
        <mxCell id="gU8ZbOlMIRfk5gMa6P2e-103" value="19.10.2024" style="rounded=1;whiteSpace=wrap;html=1;fontSize=9;" parent="1" vertex="1">
          <mxGeometry x="941.25" y="288.75" width="100" height="16" as="geometry" />
        </mxCell>
        <mxCell id="gU8ZbOlMIRfk5gMa6P2e-104" value="20:00" style="rounded=1;whiteSpace=wrap;html=1;fontSize=9;" parent="1" vertex="1">
          <mxGeometry x="941.25" y="323.75" width="100" height="16" as="geometry" />
        </mxCell>
        <mxCell id="gU8ZbOlMIRfk5gMa6P2e-105" value="" style="rounded=1;whiteSpace=wrap;html=1;fontSize=9;" parent="1" vertex="1">
          <mxGeometry x="941.25" y="354" width="100" height="16" as="geometry" />
        </mxCell>
        <mxCell id="gU8ZbOlMIRfk5gMa6P2e-106" value="Пожелания" style="text;html=1;align=center;verticalAlign=middle;whiteSpace=wrap;rounded=0;fontSize=6;" parent="1" vertex="1">
          <mxGeometry x="920" y="335" width="90" height="30" as="geometry" />
        </mxCell>
        <mxCell id="gU8ZbOlMIRfk5gMa6P2e-108" style="edgeStyle=orthogonalEdgeStyle;rounded=0;orthogonalLoop=1;jettySize=auto;html=1;" parent="1" source="gU8ZbOlMIRfk5gMa6P2e-7" edge="1">
          <mxGeometry relative="1" as="geometry">
            <mxPoint x="197" y="280" as="targetPoint" />
          </mxGeometry>
        </mxCell>
        <mxCell id="gU8ZbOlMIRfk5gMa6P2e-116" style="edgeStyle=orthogonalEdgeStyle;rounded=0;orthogonalLoop=1;jettySize=auto;html=1;entryX=0.624;entryY=-0.004;entryDx=0;entryDy=0;entryPerimeter=0;" parent="1" source="gU8ZbOlMIRfk5gMa6P2e-87" target="gU8ZbOlMIRfk5gMa6P2e-8" edge="1">
          <mxGeometry relative="1" as="geometry" />
        </mxCell>
        <mxCell id="gU8ZbOlMIRfk5gMa6P2e-118" style="edgeStyle=orthogonalEdgeStyle;rounded=0;orthogonalLoop=1;jettySize=auto;html=1;entryX=0;entryY=0.5;entryDx=0;entryDy=0;" parent="1" source="gU8ZbOlMIRfk5gMa6P2e-90" target="gU8ZbOlMIRfk5gMa6P2e-99" edge="1">
          <mxGeometry relative="1" as="geometry" />
        </mxCell>
        <mxCell id="gU8ZbOlMIRfk5gMa6P2e-119" style="edgeStyle=orthogonalEdgeStyle;rounded=0;orthogonalLoop=1;jettySize=auto;html=1;entryX=0.67;entryY=-0.004;entryDx=0;entryDy=0;entryPerimeter=0;" parent="1" source="gU8ZbOlMIRfk5gMa6P2e-100" target="gU8ZbOlMIRfk5gMa6P2e-76" edge="1">
          <mxGeometry relative="1" as="geometry" />
        </mxCell>
        <mxCell id="xE90uwtvQkSf8TCc8kJb-1" value="" style="rounded=1;whiteSpace=wrap;html=1;" vertex="1" parent="1">
          <mxGeometry x="1110" y="159.5" width="120" height="240.5" as="geometry" />
        </mxCell>
        <mxCell id="xE90uwtvQkSf8TCc8kJb-7" style="edgeStyle=orthogonalEdgeStyle;rounded=0;orthogonalLoop=1;jettySize=auto;html=1;entryX=0.25;entryY=0;entryDx=0;entryDy=0;" edge="1" parent="1" source="xE90uwtvQkSf8TCc8kJb-2" target="gU8ZbOlMIRfk5gMa6P2e-1">
          <mxGeometry relative="1" as="geometry">
            <mxPoint x="70" y="140" as="targetPoint" />
            <Array as="points">
              <mxPoint x="1270" y="343" />
              <mxPoint x="1270" y="110" />
              <mxPoint x="59" y="110" />
            </Array>
          </mxGeometry>
        </mxCell>
        <mxCell id="xE90uwtvQkSf8TCc8kJb-2" value="Назад в меню" style="rounded=1;whiteSpace=wrap;html=1;" vertex="1" parent="1">
          <mxGeometry x="1118.75" y="330" width="102.5" height="25" as="geometry" />
        </mxCell>
        <mxCell id="xE90uwtvQkSf8TCc8kJb-3" value="Столик&lt;br&gt;забронирован" style="text;html=1;align=center;verticalAlign=middle;whiteSpace=wrap;rounded=0;" vertex="1" parent="1">
          <mxGeometry x="1090" y="219.5" width="160" height="30" as="geometry" />
        </mxCell>
        <mxCell id="xE90uwtvQkSf8TCc8kJb-4" value="&lt;font style=&quot;font-size: 8px;&quot;&gt;Ждем Вас 19 октября в 20:00 в&lt;br style=&quot;font-size: 8px;&quot;&gt;нашем ресторане по&lt;br style=&quot;font-size: 8px;&quot;&gt;адресу Солянка, 1/2, стр. 1&lt;/font&gt;&lt;div style=&quot;font-size: 8px;&quot;&gt;&lt;br style=&quot;font-size: 8px;&quot;&gt;&lt;/div&gt;" style="text;html=1;align=center;verticalAlign=middle;whiteSpace=wrap;rounded=0;fontSize=8;" vertex="1" parent="1">
          <mxGeometry x="1130" y="277" width="80" height="30" as="geometry" />
        </mxCell>
        <mxCell id="xE90uwtvQkSf8TCc8kJb-8" value="1" style="rounded=1;whiteSpace=wrap;html=1;" vertex="1" parent="1">
          <mxGeometry x="43.5" y="440" width="91" height="40" as="geometry" />
        </mxCell>
        <mxCell id="xE90uwtvQkSf8TCc8kJb-9" value="2" style="rounded=1;whiteSpace=wrap;html=1;" vertex="1" parent="1">
          <mxGeometry x="210.5" y="440" width="91" height="40" as="geometry" />
        </mxCell>
        <mxCell id="xE90uwtvQkSf8TCc8kJb-10" value="4" style="rounded=1;whiteSpace=wrap;html=1;" vertex="1" parent="1">
          <mxGeometry x="564.5" y="440" width="91" height="40" as="geometry" />
        </mxCell>
        <mxCell id="xE90uwtvQkSf8TCc8kJb-11" value="4" style="rounded=1;whiteSpace=wrap;html=1;" vertex="1" parent="1">
          <mxGeometry x="755.75" y="440" width="91" height="40" as="geometry" />
        </mxCell>
        <mxCell id="xE90uwtvQkSf8TCc8kJb-12" value="5" style="rounded=1;whiteSpace=wrap;html=1;" vertex="1" parent="1">
          <mxGeometry x="945.75" y="440" width="91" height="40" as="geometry" />
        </mxCell>
        <mxCell id="xE90uwtvQkSf8TCc8kJb-13" value="6" style="rounded=1;whiteSpace=wrap;html=1;" vertex="1" parent="1">
          <mxGeometry x="1124.5" y="440" width="91" height="40" as="geometry" />
        </mxCell>
        <mxCell id="xE90uwtvQkSf8TCc8kJb-14" value="a" style="text;html=1;align=center;verticalAlign=middle;whiteSpace=wrap;rounded=0;" vertex="1" parent="1">
          <mxGeometry x="143" y="251" width="60" height="30" as="geometry" />
        </mxCell>
        <mxCell id="xE90uwtvQkSf8TCc8kJb-19" value="" style="rounded=1;whiteSpace=wrap;html=1;" vertex="1" parent="1">
          <mxGeometry x="380" y="160" width="120" height="235" as="geometry" />
        </mxCell>
        <mxCell id="xE90uwtvQkSf8TCc8kJb-20" value="" style="rounded=1;whiteSpace=wrap;html=1;" vertex="1" parent="1">
          <mxGeometry x="380" y="185" width="120" height="215" as="geometry" />
        </mxCell>
        <mxCell id="xE90uwtvQkSf8TCc8kJb-49" style="edgeStyle=orthogonalEdgeStyle;rounded=0;orthogonalLoop=1;jettySize=auto;html=1;entryX=0.631;entryY=0.002;entryDx=0;entryDy=0;entryPerimeter=0;" edge="1" parent="1" source="xE90uwtvQkSf8TCc8kJb-21" target="gU8ZbOlMIRfk5gMa6P2e-28">
          <mxGeometry relative="1" as="geometry" />
        </mxCell>
        <mxCell id="xE90uwtvQkSf8TCc8kJb-21" value="назад" style="text;html=1;align=center;verticalAlign=middle;whiteSpace=wrap;rounded=0;fontSize=6;fillColor=#dae8fc;strokeColor=#6c8ebf;" vertex="1" parent="1">
          <mxGeometry x="380" y="165" width="60" height="18" as="geometry" />
        </mxCell>
        <mxCell id="xE90uwtvQkSf8TCc8kJb-22" value="выберите столик" style="text;html=1;align=center;verticalAlign=middle;whiteSpace=wrap;rounded=0;fontSize=6;" vertex="1" parent="1">
          <mxGeometry x="405" y="195" width="70" height="10" as="geometry" />
        </mxCell>
        <mxCell id="xE90uwtvQkSf8TCc8kJb-23" value="" style="ellipse;whiteSpace=wrap;html=1;aspect=fixed;fillColor=#f8cecc;strokeColor=#b85450;" vertex="1" parent="1">
          <mxGeometry x="440" y="240" width="40" height="40" as="geometry" />
        </mxCell>
        <mxCell id="xE90uwtvQkSf8TCc8kJb-24" value="" style="rounded=0;whiteSpace=wrap;html=1;fillColor=#d5e8d4;strokeColor=#82b366;" vertex="1" parent="1">
          <mxGeometry x="410" y="312" width="60" height="30" as="geometry" />
        </mxCell>
        <mxCell id="xE90uwtvQkSf8TCc8kJb-25" value="" style="shape=link;html=1;rounded=0;" edge="1" parent="1">
          <mxGeometry width="100" relative="1" as="geometry">
            <mxPoint x="390" y="385" as="sourcePoint" />
            <mxPoint x="490" y="385" as="targetPoint" />
          </mxGeometry>
        </mxCell>
        <mxCell id="xE90uwtvQkSf8TCc8kJb-26" value="" style="shape=link;html=1;rounded=0;" edge="1" parent="1">
          <mxGeometry width="100" relative="1" as="geometry">
            <mxPoint x="496" y="217.39" as="sourcePoint" />
            <mxPoint x="496" y="372.61" as="targetPoint" />
          </mxGeometry>
        </mxCell>
        <mxCell id="xE90uwtvQkSf8TCc8kJb-27" value="" style="endArrow=none;html=1;rounded=0;" edge="1" parent="1">
          <mxGeometry width="50" height="50" relative="1" as="geometry">
            <mxPoint x="496" y="315" as="sourcePoint" />
            <mxPoint x="496" y="245" as="targetPoint" />
          </mxGeometry>
        </mxCell>
        <mxCell id="xE90uwtvQkSf8TCc8kJb-28" value="" style="endArrow=none;html=1;rounded=0;" edge="1" parent="1">
          <mxGeometry width="50" height="50" relative="1" as="geometry">
            <mxPoint x="410" y="385" as="sourcePoint" />
            <mxPoint x="460" y="385" as="targetPoint" />
            <Array as="points">
              <mxPoint x="470" y="385" />
            </Array>
          </mxGeometry>
        </mxCell>
        <mxCell id="xE90uwtvQkSf8TCc8kJb-29" value="" style="ellipse;whiteSpace=wrap;html=1;aspect=fixed;fillColor=#d5e8d4;strokeColor=#82b366;" vertex="1" parent="1">
          <mxGeometry x="390" y="241" width="40" height="40" as="geometry" />
        </mxCell>
        <mxCell id="xE90uwtvQkSf8TCc8kJb-30" value="" style="rounded=1;whiteSpace=wrap;html=1;" vertex="1" parent="1">
          <mxGeometry x="385" y="209" width="50" height="15" as="geometry" />
        </mxCell>
        <mxCell id="xE90uwtvQkSf8TCc8kJb-31" value="1 этаж" style="text;html=1;align=center;verticalAlign=middle;whiteSpace=wrap;rounded=0;fontSize=9;" vertex="1" parent="1">
          <mxGeometry x="380" y="201.5" width="60" height="30" as="geometry" />
        </mxCell>
        <mxCell id="xE90uwtvQkSf8TCc8kJb-32" value="" style="rounded=1;whiteSpace=wrap;html=1;" vertex="1" parent="1">
          <mxGeometry x="440" y="208" width="50" height="17" as="geometry" />
        </mxCell>
        <mxCell id="xE90uwtvQkSf8TCc8kJb-33" value="2 этаж" style="text;html=1;align=center;verticalAlign=middle;whiteSpace=wrap;rounded=0;fontSize=9;" vertex="1" parent="1">
          <mxGeometry x="435" y="203.25" width="60" height="26.5" as="geometry" />
        </mxCell>
        <mxCell id="xE90uwtvQkSf8TCc8kJb-34" value="занят до 19:30" style="text;html=1;align=center;verticalAlign=middle;whiteSpace=wrap;rounded=0;fontSize=4;" vertex="1" parent="1">
          <mxGeometry x="430" y="245" width="60" height="30" as="geometry" />
        </mxCell>
        <mxCell id="xE90uwtvQkSf8TCc8kJb-35" value="" style="rounded=1;whiteSpace=wrap;html=1;rotation=-180;fillColor=#d5e8d4;strokeColor=#82b366;" vertex="1" parent="1">
          <mxGeometry x="400" y="235" width="20" height="10" as="geometry" />
        </mxCell>
        <mxCell id="xE90uwtvQkSf8TCc8kJb-36" value="" style="rounded=1;whiteSpace=wrap;html=1;rotation=-181;fillColor=#d5e8d4;strokeColor=#82b366;" vertex="1" parent="1">
          <mxGeometry x="400" y="277.5" width="20" height="10" as="geometry" />
        </mxCell>
        <mxCell id="xE90uwtvQkSf8TCc8kJb-37" value="" style="rounded=1;whiteSpace=wrap;html=1;rotation=-180;fillColor=#f8cecc;strokeColor=#b85450;" vertex="1" parent="1">
          <mxGeometry x="450" y="235" width="20" height="10" as="geometry" />
        </mxCell>
        <mxCell id="xE90uwtvQkSf8TCc8kJb-38" value="" style="rounded=1;whiteSpace=wrap;html=1;rotation=-180;fillColor=#f8cecc;strokeColor=#b85450;" vertex="1" parent="1">
          <mxGeometry x="450" y="275" width="20" height="10" as="geometry" />
        </mxCell>
        <mxCell id="xE90uwtvQkSf8TCc8kJb-39" value="" style="rounded=1;whiteSpace=wrap;html=1;rotation=-180;fillColor=#d5e8d4;strokeColor=#82b366;" vertex="1" parent="1">
          <mxGeometry x="430" y="305" width="20" height="10" as="geometry" />
        </mxCell>
        <mxCell id="xE90uwtvQkSf8TCc8kJb-40" value="" style="rounded=1;whiteSpace=wrap;html=1;rotation=-180;fillColor=#d5e8d4;strokeColor=#82b366;" vertex="1" parent="1">
          <mxGeometry x="430" y="342" width="20" height="10" as="geometry" />
        </mxCell>
        <mxCell id="xE90uwtvQkSf8TCc8kJb-41" value="" style="rounded=1;whiteSpace=wrap;html=1;rotation=-90;fillColor=#d5e8d4;strokeColor=#82b366;" vertex="1" parent="1">
          <mxGeometry x="400" y="322" width="20" height="10" as="geometry" />
        </mxCell>
        <mxCell id="xE90uwtvQkSf8TCc8kJb-42" value="" style="rounded=1;whiteSpace=wrap;html=1;rotation=-90;fillColor=#d5e8d4;strokeColor=#82b366;" vertex="1" parent="1">
          <mxGeometry x="460" y="322" width="20" height="10" as="geometry" />
        </mxCell>
        <mxCell id="xE90uwtvQkSf8TCc8kJb-43" value="&lt;span style=&quot;font-size: 8px;&quot;&gt;доступен&lt;/span&gt;" style="text;html=1;align=center;verticalAlign=middle;whiteSpace=wrap;rounded=0;fillColor=#d5e8d4;strokeColor=#82b366;" vertex="1" parent="1">
          <mxGeometry x="410" y="312" width="60" height="30" as="geometry" />
        </mxCell>
        <mxCell id="xE90uwtvQkSf8TCc8kJb-44" value="доступен" style="text;html=1;align=center;verticalAlign=middle;whiteSpace=wrap;rounded=0;fontSize=4;" vertex="1" parent="1">
          <mxGeometry x="380" y="245" width="60" height="30" as="geometry" />
        </mxCell>
        <mxCell id="xE90uwtvQkSf8TCc8kJb-48" value="3" style="rounded=1;whiteSpace=wrap;html=1;" vertex="1" parent="1">
          <mxGeometry x="394.5" y="440" width="91" height="40" as="geometry" />
        </mxCell>
        <mxCell id="xE90uwtvQkSf8TCc8kJb-51" style="edgeStyle=orthogonalEdgeStyle;rounded=0;orthogonalLoop=1;jettySize=auto;html=1;entryX=0;entryY=0.442;entryDx=0;entryDy=0;entryPerimeter=0;" edge="1" parent="1" target="xE90uwtvQkSf8TCc8kJb-20">
          <mxGeometry relative="1" as="geometry">
            <mxPoint x="310" y="375" as="sourcePoint" />
            <Array as="points">
              <mxPoint x="340" y="375" />
              <mxPoint x="340" y="280" />
            </Array>
          </mxGeometry>
        </mxCell>
        <mxCell id="xE90uwtvQkSf8TCc8kJb-52" style="edgeStyle=orthogonalEdgeStyle;rounded=0;orthogonalLoop=1;jettySize=auto;html=1;entryX=-0.019;entryY=0.44;entryDx=0;entryDy=0;entryPerimeter=0;exitX=1;exitY=0.5;exitDx=0;exitDy=0;" edge="1" parent="1" source="xE90uwtvQkSf8TCc8kJb-43" target="gU8ZbOlMIRfk5gMa6P2e-10">
          <mxGeometry relative="1" as="geometry">
            <mxPoint x="487.5" y="370" as="sourcePoint" />
          </mxGeometry>
        </mxCell>
        <mxCell id="xE90uwtvQkSf8TCc8kJb-53" style="edgeStyle=orthogonalEdgeStyle;rounded=0;orthogonalLoop=1;jettySize=auto;html=1;entryX=-0.025;entryY=0.43;entryDx=0;entryDy=0;entryPerimeter=0;" edge="1" parent="1" source="gU8ZbOlMIRfk5gMa6P2e-74" target="gU8ZbOlMIRfk5gMa6P2e-77">
          <mxGeometry relative="1" as="geometry" />
        </mxCell>
        <mxCell id="xE90uwtvQkSf8TCc8kJb-55" value="b" style="text;html=1;align=center;verticalAlign=middle;whiteSpace=wrap;rounded=0;" vertex="1" parent="1">
          <mxGeometry x="325" y="251" width="60" height="30" as="geometry" />
        </mxCell>
        <mxCell id="xE90uwtvQkSf8TCc8kJb-56" value="c" style="text;html=1;align=center;verticalAlign=middle;whiteSpace=wrap;rounded=0;" vertex="1" parent="1">
          <mxGeometry x="500" y="249.5" width="60" height="30" as="geometry" />
        </mxCell>
        <mxCell id="xE90uwtvQkSf8TCc8kJb-57" value="d" style="text;html=1;align=center;verticalAlign=middle;whiteSpace=wrap;rounded=0;" vertex="1" parent="1">
          <mxGeometry x="680" y="246.5" width="60" height="30" as="geometry" />
        </mxCell>
        <mxCell id="xE90uwtvQkSf8TCc8kJb-58" value="e" style="text;html=1;align=center;verticalAlign=middle;whiteSpace=wrap;rounded=0;" vertex="1" parent="1">
          <mxGeometry x="870" y="247.5" width="60" height="30" as="geometry" />
        </mxCell>
        <mxCell id="xE90uwtvQkSf8TCc8kJb-59" value="f" style="text;html=1;align=center;verticalAlign=middle;whiteSpace=wrap;rounded=0;" vertex="1" parent="1">
          <mxGeometry x="1058.75" y="246" width="60" height="30" as="geometry" />
        </mxCell>
        <mxCell id="xE90uwtvQkSf8TCc8kJb-94" value="3a" style="rounded=1;whiteSpace=wrap;html=1;" vertex="1" parent="1">
          <mxGeometry x="398" y="790" width="91" height="40" as="geometry" />
        </mxCell>
        <mxCell id="xE90uwtvQkSf8TCc8kJb-114" value="" style="rounded=1;whiteSpace=wrap;html=1;" vertex="1" parent="1">
          <mxGeometry x="381.5" y="530" width="120" height="235" as="geometry" />
        </mxCell>
        <mxCell id="xE90uwtvQkSf8TCc8kJb-115" value="" style="rounded=1;whiteSpace=wrap;html=1;" vertex="1" parent="1">
          <mxGeometry x="381.5" y="555" width="120" height="215" as="geometry" />
        </mxCell>
        <mxCell id="xE90uwtvQkSf8TCc8kJb-116" value="назад" style="text;html=1;align=center;verticalAlign=middle;whiteSpace=wrap;rounded=0;fontSize=6;strokeColor=#6c8ebf;fillColor=#dae8fc;" vertex="1" parent="1">
          <mxGeometry x="381.5" y="535" width="60" height="18" as="geometry" />
        </mxCell>
        <mxCell id="xE90uwtvQkSf8TCc8kJb-118" value="" style="rounded=1;whiteSpace=wrap;html=1;" vertex="1" parent="1">
          <mxGeometry x="391.5" y="600" width="100" height="15" as="geometry" />
        </mxCell>
        <mxCell id="xE90uwtvQkSf8TCc8kJb-119" value="" style="rounded=1;whiteSpace=wrap;html=1;" vertex="1" parent="1">
          <mxGeometry x="391.5" y="632.5" width="100" height="17.5" as="geometry" />
        </mxCell>
        <mxCell id="xE90uwtvQkSf8TCc8kJb-120" value="Дата" style="text;html=1;align=center;verticalAlign=middle;whiteSpace=wrap;rounded=0;fontSize=7;" vertex="1" parent="1">
          <mxGeometry x="381.5" y="575" width="50" height="36" as="geometry" />
        </mxCell>
        <mxCell id="xE90uwtvQkSf8TCc8kJb-121" value="Время" style="text;html=1;align=center;verticalAlign=middle;whiteSpace=wrap;rounded=0;fontSize=7;" vertex="1" parent="1">
          <mxGeometry x="381.5" y="610" width="50" height="30" as="geometry" />
        </mxCell>
        <mxCell id="xE90uwtvQkSf8TCc8kJb-122" value="" style="triangle;whiteSpace=wrap;html=1;rotation=90;" vertex="1" parent="1">
          <mxGeometry x="481.5" y="606" width="2" height="4" as="geometry" />
        </mxCell>
        <mxCell id="xE90uwtvQkSf8TCc8kJb-123" value="" style="triangle;whiteSpace=wrap;html=1;rotation=90;" vertex="1" parent="1">
          <mxGeometry x="481.5" y="639.25" width="2" height="4" as="geometry" />
        </mxCell>
        <mxCell id="xE90uwtvQkSf8TCc8kJb-124" value="" style="rounded=1;whiteSpace=wrap;html=1;" vertex="1" parent="1">
          <mxGeometry x="391.5" y="671.25" width="100" height="17.5" as="geometry" />
        </mxCell>
        <mxCell id="xE90uwtvQkSf8TCc8kJb-125" value="Количество гостей" style="text;html=1;align=center;verticalAlign=middle;whiteSpace=wrap;rounded=0;fontSize=7;" vertex="1" parent="1">
          <mxGeometry x="386.5" y="647.5" width="80" height="30" as="geometry" />
        </mxCell>
        <mxCell id="xE90uwtvQkSf8TCc8kJb-126" value="" style="triangle;whiteSpace=wrap;html=1;rotation=90;" vertex="1" parent="1">
          <mxGeometry x="481.5" y="678" width="2" height="4" as="geometry" />
        </mxCell>
        <mxCell id="xE90uwtvQkSf8TCc8kJb-127" value="Сколько гостей планируется" style="text;html=1;align=center;verticalAlign=middle;whiteSpace=wrap;rounded=0;fontSize=5;" vertex="1" parent="1">
          <mxGeometry x="378.5" y="665" width="105" height="25" as="geometry" />
        </mxCell>
        <mxCell id="xE90uwtvQkSf8TCc8kJb-128" value="" style="rounded=1;whiteSpace=wrap;html=1;" vertex="1" parent="1">
          <mxGeometry x="389" y="735" width="105" height="20" as="geometry" />
        </mxCell>
        <mxCell id="xE90uwtvQkSf8TCc8kJb-136" style="edgeStyle=orthogonalEdgeStyle;rounded=0;orthogonalLoop=1;jettySize=auto;html=1;" edge="1" parent="1" source="xE90uwtvQkSf8TCc8kJb-129" target="xE90uwtvQkSf8TCc8kJb-20">
          <mxGeometry relative="1" as="geometry">
            <Array as="points">
              <mxPoint x="530" y="745" />
              <mxPoint x="530" y="420" />
              <mxPoint x="440" y="420" />
            </Array>
          </mxGeometry>
        </mxCell>
        <mxCell id="xE90uwtvQkSf8TCc8kJb-129" value="выбрать столик" style="text;html=1;align=center;verticalAlign=middle;whiteSpace=wrap;rounded=0;fontSize=8;" vertex="1" parent="1">
          <mxGeometry x="394" y="730" width="95" height="30" as="geometry" />
        </mxCell>
        <mxCell id="xE90uwtvQkSf8TCc8kJb-131" style="edgeStyle=orthogonalEdgeStyle;rounded=0;orthogonalLoop=1;jettySize=auto;html=1;entryX=1.02;entryY=0.809;entryDx=0;entryDy=0;entryPerimeter=0;" edge="1" parent="1" source="xE90uwtvQkSf8TCc8kJb-116" target="gU8ZbOlMIRfk5gMa6P2e-1">
          <mxGeometry relative="1" as="geometry">
            <Array as="points">
              <mxPoint x="170" y="544" />
              <mxPoint x="170" y="354" />
            </Array>
          </mxGeometry>
        </mxCell>
        <mxCell id="xE90uwtvQkSf8TCc8kJb-133" style="edgeStyle=orthogonalEdgeStyle;rounded=0;orthogonalLoop=1;jettySize=auto;html=1;entryX=0.677;entryY=0.006;entryDx=0;entryDy=0;entryPerimeter=0;" edge="1" parent="1" source="gU8ZbOlMIRfk5gMa6P2e-46" target="xE90uwtvQkSf8TCc8kJb-114">
          <mxGeometry relative="1" as="geometry">
            <Array as="points">
              <mxPoint x="340" y="375" />
              <mxPoint x="340" y="510" />
              <mxPoint x="463" y="510" />
            </Array>
          </mxGeometry>
        </mxCell>
        <mxCell id="xE90uwtvQkSf8TCc8kJb-134" value="На это время свободных столиков нет:( Попробуйте выбрать другое время" style="rounded=1;whiteSpace=wrap;html=1;fillColor=#f8cecc;strokeColor=#b85450;fontSize=6;" vertex="1" parent="1">
          <mxGeometry x="381.5" y="560" width="120" height="27" as="geometry" />
        </mxCell>
      </root>
    </mxGraphModel>
  </diagram>
</mxfile>
